<svg xmlns="http://www.w3.org/2000/svg" viewBox="0 0 150 75">
<!-- SVG created with Arrow, by QuiverAI (https://quiver.ai) -->
  <style type="text/css">.cls-0 {fill:url(#SVGID_1_);}
.cls-1 {fill:url(#SVGID_2_);}
.cls-2 {fill:url(#SVGID_3_);}
.cls-3 {fill:url(#SVGID_4_);}
.cls-4 {fill:url(#SVGID_5_);}
.cls-5 {fill:url(#SVGID_6_);}
.cls-6 {fill:url(#SVGID_7_);}
.cls-7 {fill:url(#SVGID_8_);}
.cls-8 {fill:url(#SVGID_9_);}
.cls-9 {fill:url(#SVGID_10_);}</style>
  <linearGradient id="SVGID_1_" x1="46.27" x2="66.16" y1="36.48" y2="61.35" gradientUnits="userSpaceOnUse">
    <stop stop-color="#2287EE" offset="0"/>
    <stop stop-color="#289BA3" offset="1"/>
  </linearGradient>
  <path class="cls-0" d="m44.9 38.4c0-1.3 1.1-2.2 2.5-2.2 1.1 0 2.3 0.9 2.3 2.2v12.9c0 4.2 2.3 6.9 6.4 6.9 3.8 0 6.4-2.6 6.4-6.9v-12.9c0-1.3 1-2.2 2.3-2.2 1.4 0 2.3 1 2.3 2.4v12.3c0 6.9-3.7 11.7-11.1 11.7-6.9 0.1-11.1-4-11.1-11.3v-12.9z"/>
  <linearGradient id="SVGID_2_" x1="73.28" x2="92.61" y1="38.34" y2="62.55" gradientUnits="userSpaceOnUse">
    <stop stop-color="#2893C2" offset="0"/>
    <stop stop-color="#28A68C" offset="1"/>
  </linearGradient>
  <path class="cls-1" d="m72.3 47.2c0-6.2 4.2-10.8 10.5-10.8 6 0 10.9 3.9 11 10.8v13c0 1.2-0.9 2.4-2.4 2.4-1.4 0.1-2.2-1-2.2-2.3v-12.5c0-4.8-2.6-7.2-6.4-7.2-3.3 0-6 2.2-6 7v12.7c0 1.3-1 2.3-2.2 2.3-1.4 0.1-2.3-0.9-2.3-2.2v-13.2z"/>
  <linearGradient id="SVGID_3_" x1="99.92" x2="119.4" y1="40.57" y2="70.83" gradientUnits="userSpaceOnUse">
    <stop stop-color="#28A199" offset="0"/>
    <stop stop-color="#22B562" offset="1"/>
  </linearGradient>
  <path class="cls-2" d="m122.9 60.9c0 7-3.8 13.7-12.9 13.7-4.6-0.1-7.4-1.3-10-3.3-1.7-1.2-2.3-2.8-0.9-4.4 0.9-0.8 2.2-0.8 2.9-0.1 2.2 1.6 4.7 3.1 7.9 3.1 5.7 0 8.1-3.5 8.1-8.1v-2.9c-2.1 2.2-4.6 3.6-8.1 3.6-7.3 0-12.3-5.9-12.3-13.1 0-7 5.1-13 12.8-13 6.5 0 12.5 4.9 12.5 12.4v12.1zm-12.5-20.3c-3.9 0-8 3.2-8 8.9 0 4.8 3.2 8.6 7.8 8.6 4.4 0 8-3.3 8-8.5 0-6.5-4-9-7.8-9z"/>
  <linearGradient id="SVGID_4_" x1="129.1" x2="146.6" y1="38.3" y2="62.81" gradientUnits="userSpaceOnUse">
    <stop stop-color="#28A678" offset="0"/>
    <stop stop-color="#22B562" offset="1"/>
  </linearGradient>
  <path class="cls-3" d="m144 60v-1.1c-1.9 2.3-5.1 3.7-7.8 3.7-5.1 0.2-9-2.3-9-7.3 0-5.6 5.6-7.9 11.1-7.8 2.1 0 3.7 0.2 5.6 0.5v-1.4c0-3.9-2.4-6.2-5.7-6.2-2.3-0.1-4.5 0.4-6 1.5-1.3 0.8-2.8 1-3.3-0.5-0.6-1.1 0.1-2.2 1.3-2.9 2.1-1.1 4.8-2 8.1-2.1 6 0.1 9.9 3.3 9.9 9.8v14c0 1.6-0.9 2.4-2.2 2.4-1.2 0-1.9-1-2-2.6zm-6.9-1.2c4.1-0.4 6.8-2.8 6.8-6.9v-0.8c-1.5-0.2-3.3-0.4-5.5-0.4-3.3 0-6.2 0.9-6.2 4.4 0 2.5 2.2 3.8 4.9 3.7z"/>
  <linearGradient id="SVGID_5_" x1="11.12" x2="28.47" y1="2.338" y2="68.02" gradientUnits="userSpaceOnUse">
    <stop stop-color="#2287EE" offset="0"/>
    <stop stop-color="#28A68C" offset=".67"/>
    <stop stop-color="#22B562" offset="1"/>
  </linearGradient>
  <path class="cls-4" d="m40.9 54.9c-1.3 0.1-2.3 2.2-5.4 4.6-2.7 2.2-8.6 5.1-14.7 2.8 0.9-0.7 5.2 0.2 10.4-2.4 1.4-0.9 3.6-2.1 2.3-3.6-1.1-1-2.2 0.4-5.2 1.2-1.5 0.3-3.9 0.4-5.7-0.3-2.8-1.1-4-0.7-6.9-2.1-3.1-1.4-5.7-5.7-6.2-9.6v-41.1c-0.1-2.1-1.8-4-3.9-4h-0.1c-2 0-3.6 1.7-3.6 3.7v40.8c0 10.9 7.4 24.2 21.5 24.2 12 0.2 17.2-8.5 17.9-9.6 1.1-2.1 1.5-3.1 0.6-3.8-0.3-0.7-1-0.8-1-0.8z"/>
  <linearGradient id="SVGID_6_" x1="17.31" x2="30.61" y1="38.34" y2="54.14" gradientUnits="userSpaceOnUse">
    <stop stop-color="#FDC94F" offset="0"/>
    <stop stop-color="#EB631C" offset="1"/>
  </linearGradient>
  <path class="cls-5" d="m24.9 38.7c-3-2.6-10.6-2-10.6 4.9 0.4 7.1 9.8 11.6 10.5 12 0.7 0.2 10.6-4.6 11-11.4 0.3-5.8-6.7-9.3-10.9-5.5zm5.7 11.2-0.2 0.9-0.4 0.1-0.2-0.1-0.3-0.3 0.1-0.7-0.1-0.4 0.8-0.8 0.3 0.4v0.9zm-0.3-3.9-1.3 1.5v0.5l0.2 0.3-0.1 1.1-1 0.6v0.7l-1.3 1.3-1.5 0.3-0.2-0.8-0.4-0.6-0.5-1.8 0.3-0.7-0.2-0.7-0.6-0.9 0.2-0.9h-0.6l-0.3-0.5-1.1 0.3h-0.9l-1.2-1.2-0.3-0.5 0.2-0.8v-0.6l1.1-0.9 0.2-0.7 1.1-0.5 2-0.1 0.2 0.2-0.3 0.4 0.7 0.3 0.4 0.4 0.7-0.2v-0.2l1.9 0.3 0.2-0.1-0.1 0.7 0.6 0.9 0.2 0.6 1 1.1 1.1-0.2-0.1 1.4z"/>
  <linearGradient id="SVGID_7_" x1="24.76" x2="25.31" y1="24.55" y2="34.1" gradientUnits="userSpaceOnUse">
    <stop stop-color="#EB631C" offset="0"/>
    <stop stop-color="#F4A22A" offset=".5056"/>
    <stop stop-color="#FCD565" offset="1"/>
  </linearGradient>
  <path class="cls-6" d="m24.9 24.5c-0.5 2.4-1.3 4.3-1.2 5.7 0.2 1.4 1.2 3.9 1.2 3.9 0.6-1.6 1.2-3.4 1.1-4.8-0.1-1.5-1.1-4.8-1.1-4.8z"/>
  <linearGradient id="SVGID_8_" x1="18.61" x2="19.22" y1="29.51" y2="34.51" gradientUnits="userSpaceOnUse">
    <stop stop-color="#EB631C" offset="0"/>
    <stop stop-color="#F4A22A" offset=".5056"/>
    <stop stop-color="#FCD565" offset="1"/>
  </linearGradient>
  <path class="cls-7" d="m17.8 29.5c0.3 2.5 0.5 3.1 2.4 4.9-0.1-2.8-0.1-3-2.4-4.9z"/>
  <linearGradient id="SVGID_9_" x1="14.63" x2="14.99" y1="33.8" y2="36.43" gradientUnits="userSpaceOnUse">
    <stop stop-color="#EB631C" offset="0"/>
    <stop stop-color="#F4A22A" offset=".5056"/>
    <stop stop-color="#FCD565" offset="1"/>
  </linearGradient>
  <path class="cls-8" d="m13.3 33.8c0.9 1.8 1.3 2 3.1 2.6-0.6-1.6-1.3-2-3.1-2.6z"/>
  <linearGradient id="SVGID_10_" x1="30.57" x2="31.09" y1="29.45" y2="34.29" gradientUnits="userSpaceOnUse">
    <stop stop-color="#EB631C" offset="0"/>
    <stop stop-color="#F4A22A" offset=".5056"/>
    <stop stop-color="#FCD565" offset="1"/>
  </linearGradient>
  <path class="cls-9" d="m32.1 29.5c-2.3 2.1-2.4 2.5-2.6 4.9 2.1-1.6 2.4-2.5 2.6-4.9z"/>
  <path d="m36.9 33.8c-2 0.6-2.9 1.1-3.6 2.6 1.9-0.3 2.6-0.8 3.6-2.6z" fill="#F4A22A"/>
</svg>